# Blender v2.82 (sub 7) OBJ File: ''
# www.blender.org
o Tile
v -0.500000 0.025000 -0.500000
v 0.500000 0.025000 0.500000
v 0.500000 0.025000 -0.500000
v -0.500000 0.025000 0.500000
v -0.500000 -0.025000 0.500000
v 0.500000 -0.025000 -0.500000
v 0.500000 -0.025000 0.500000
v -0.500000 -0.025000 -0.500000
vt 1.000000 -0.000048
vt 0.000000 1.000000
vt 0.000000 0.000000
vt -0.000004 -0.000009
vt 1.000000 1.000000
vt 1.000000 -0.000024
vt 0.000000 0.000000
vt 1.000000 0.000000
vt 1.000000 1.000000
vt 0.000000 0.000000
vt 1.000000 0.000000
vt 1.000000 1.000000
vt 1.000000 0.000000
vt 1.000000 1.000000
vt 1.000000 1.000000
vt 0.000000 0.000000
vn 0.0000 1.0000 0.0000
vn 0.0000 -1.0000 0.0000
vn 0.0000 0.0000 1.0000
vn 1.0000 0.0000 0.0000
vn 0.0000 0.0000 -1.0000
vn -1.0000 0.0000 0.0000
s off
f 1/1/1 2/2/1 3/3/1
f 2/4/1 1/5/1 4/6/1
f 5/7/2 6/8/2 7/9/2
f 6/10/2 5/11/2 8/12/2
f 5/7/3 2/13/3 4/14/3
f 2/4/3 5/11/3 7/9/3
f 2/4/4 6/8/4 3/15/4
f 6/10/4 2/13/4 7/9/4
f 6/10/5 1/1/5 3/15/5
f 1/16/5 6/8/5 8/12/5
f 5/7/6 1/1/6 8/12/6
f 1/16/6 5/11/6 4/14/6
