# Blender v2.90.0 OBJ File: 'testmesh.blend'
# www.blender.org
mtllib testmesh.mtl
o Cube
v 1.000000 1.000000 -1.000000
v 1.000000 1.000000 1.000000
v -0.211275 1.906156 -0.604099
v -1.000000 1.000000 1.000000
v -0.085188 -1.000000 0.085188
v 0.583822 2.415648 0.606279
v -0.583822 2.415648 0.606279
v 0.312015 3.032076 0.267913
v -0.312015 3.032076 0.267913
vt 0.375000 0.750000
vt 0.625000 0.750000
vt 0.625000 1.000000
vt 0.375000 0.000000
vt 0.625000 0.000000
vt 0.625000 0.250000
vt 0.375000 0.500000
vt 0.625000 0.500000
vt 0.375000 0.250000
vt 0.000000 0.000000
vt 0.000000 0.000000
vt 0.000000 0.000000
vt 0.625000 0.750000
vt 0.000000 0.000000
vt 0.000000 0.000000
vn 0.0000 -0.4160 0.9094
vn -0.8484 -0.1567 -0.5057
vn 0.8790 -0.4769 0.0000
vn -0.4504 -0.2245 -0.8641
vn 0.0000 -0.2680 -0.9634
vn 0.9594 0.2820 0.0000
vn 0.3729 0.7419 -0.5572
vn 0.0000 0.2680 0.9634
vn 0.0000 -0.4812 -0.8766
vn 0.8240 0.0538 -0.5640
vn 0.0000 -0.6123 0.7906
vn 0.9093 -0.2009 0.3644
vn -0.9190 0.1714 -0.3550
usemtl Material
s off
f 5/1/1 2/2/1 4/3/1
f 5/4/2 4/5/2 3/6/2
f 5/7/3 1/8/3 2/2/3
f 5/9/4 3/6/4 1/8/4
f 7/10/5 6/11/5 4/12/5
f 2/2/6 1/8/6 6/13/6
f 1/8/7 3/6/7 6/13/7
f 4/12/8 2/2/8 6/11/8
f 6/11/9 7/10/9 9/14/9 8/15/9
f 6/11/10 3/6/10 8/15/10
f 8/15/11 9/14/11 3/6/11
f 9/14/12 7/10/12 3/6/12
f 4/12/13 7/10/13 3/6/13
